HIERARCHY
ROOT hip
{
	OFFSET 0.000000 0.000000 0.000000
	CHANNELS 6 Xposition Yposition Zposition Zrotation Yrotation Xrotation 
	JOINT lhipjoint
	{
		OFFSET 0.000000 0.000000 0.000000
		CHANNELS 3 Zrotation Yrotation Xrotation
		JOINT lfemur
		{
			OFFSET 1.363060 -1.794630 0.839290
			CHANNELS 3 Zrotation Yrotation Xrotation
			JOINT ltibia
			{
				OFFSET 2.448110 -6.726130 0.000000
				CHANNELS 3 Zrotation Yrotation Xrotation
				JOINT lfoot
				{
					OFFSET 2.562200 -7.039590 0.000000
					CHANNELS 3 Zrotation Yrotation Xrotation
					JOINT ltoes
					{
						OFFSET 0.157640 -0.433110 2.322550
						CHANNELS 3 Zrotation Yrotation Xrotation
						End Site
						{
							OFFSET 0.000000 0.000000 0.000000
						}
					}
				}
			}
		}
	}
	JOINT rhipjoint
	{
		OFFSET 0.000000 0.000000 0.000000
		CHANNELS 3 Zrotation Yrotation Xrotation
		JOINT rfemur
		{
			OFFSET -1.305520 -1.794630 0.839290
			CHANNELS 3 Zrotation Yrotation Xrotation
			JOINT rtibia
			{
				OFFSET -2.542530 -6.985550 0.000000
				CHANNELS 3 Zrotation Yrotation Xrotation
				JOINT rfoot
				{
					OFFSET -2.568260 -7.056230 0.000000
					CHANNELS 3 Zrotation Yrotation Xrotation
					JOINT rtoes
					{
						OFFSET -0.164730 -0.452590 2.363150
						CHANNELS 3 Zrotation Yrotation Xrotation
						End Site
						{
							OFFSET 0.000000 0.000000 0.000000
						}
					}
				}
			}
		}
	}
	JOINT lowerback
	{
		OFFSET 0.000000 0.000000 0.000000
		CHANNELS 3 Zrotation Yrotation Xrotation
		JOINT upperback
		{
			OFFSET 0.028270 2.035590 -0.193380
			CHANNELS 3 Zrotation Yrotation Xrotation
			JOINT thorax
			{
				OFFSET 0.056720 2.048850 -0.042750
				CHANNELS 3 Zrotation Yrotation Xrotation
				JOINT lowerneck
				{
					OFFSET 0.000000 0.000000 0.000000
					CHANNELS 3 Zrotation Yrotation Xrotation
					JOINT upperneck
					{
						OFFSET -0.054170 1.746240 0.172020
						CHANNELS 3 Zrotation Yrotation Xrotation
						JOINT head
						{
							OFFSET 0.104070 1.761360 -0.123970
							CHANNELS 3 Zrotation Yrotation Xrotation
							End Site
							{
								OFFSET 0.000000 0.000000 0.000000
							}
						}
					}
				}
				JOINT lclavicle
				{
					OFFSET 0.000000 0.000000 0.000000
					CHANNELS 3 Zrotation Yrotation Xrotation
					JOINT lhumerus
					{
						OFFSET 3.362410 1.200890 -0.311210
						CHANNELS 3 Zrotation Yrotation Xrotation
						JOINT lradius
						{
							OFFSET 4.983000 -0.000000 -0.000000
							CHANNELS 3 Zrotation Yrotation Xrotation
							JOINT lwrist
							{
								OFFSET 3.483560 -0.000000 -0.000000
								CHANNELS 3 Zrotation Yrotation Xrotation
								JOINT lhand
								{
									OFFSET 0.000000 0.000000 0.000000
									CHANNELS 3 Zrotation Yrotation Xrotation
									JOINT lfingers
									{
										OFFSET 0.715260 -0.000000 -0.000000
										CHANNELS 3 Zrotation Yrotation Xrotation
										End Site
										{
											OFFSET 0.000000 0.000000 0.000000
										}
									}
								}
								JOINT lthumb
								{
									OFFSET 0.000000 0.000000 0.000000
									CHANNELS 3 Zrotation Yrotation Xrotation
									End Site
									{
										OFFSET 0.000000 0.000000 0.000000
									}
								}
							}
						}
					}
				}
				JOINT rclavicle
				{
					OFFSET 0.000000 0.000000 0.000000
					CHANNELS 3 Zrotation Yrotation Xrotation
					JOINT rhumerus
					{
						OFFSET -3.136600 1.374050 -0.404650
						CHANNELS 3 Zrotation Yrotation Xrotation
						JOINT rradius
						{
							OFFSET -5.241900 -0.000000 -0.000000
							CHANNELS 3 Zrotation Yrotation Xrotation
							JOINT rwrist
							{
								OFFSET -3.444170 -0.000000 -0.000000
								CHANNELS 3 Zrotation Yrotation Xrotation
								JOINT rhand
								{
									OFFSET 0.000000 0.000000 0.000000
									CHANNELS 3 Zrotation Yrotation Xrotation
									JOINT rfingers
									{
										OFFSET -0.622530 -0.000000 -0.000000
										CHANNELS 3 Zrotation Yrotation Xrotation
										End Site
										{
											OFFSET 0.000000 0.000000 0.000000
										}
									}
								}
								JOINT rthumb
								{
									OFFSET 0.000000 0.000000 0.000000
									CHANNELS 3 Zrotation Yrotation Xrotation
									End Site
									{
										OFFSET 0.000000 0.000000 0.000000
									}
								}
							}
						}
					}
				}
			}
		}
	}
}
MOTION
Frames: 8
Frame Time: 0.008333
7.085515 16.052684 4.327844 -170.157574 12.921815 -179.486004 3.327223 3.585685 0.289689 5.427260 11.928899 -16.344973 6.222429 14.641630 45.900093 4.524896 -23.152009 -3.465547 2.579900 -9.981700 -28.917600 -6.933573 -4.240311 -0.174005 17.186486 0.364725 -21.518281 -6.460319 -12.886437 41.899196 -0.431731 7.582141 3.792127 -4.478200 -12.770900 38.516900 -0.921074 -3.869974 10.300509 2.789737 -4.632198 -3.805300 12.939851 -1.185644 -3.597576 -7.072182 -15.196760 5.244855 4.956074 -22.354691 9.382998 1.618000 -10.261600 -5.947700 0.183920 -9.323268 4.185832 -58.484547 -20.308862 62.558499 126.364924 -42.848805 -86.986078 1.392729 1.802516 -15.518477 30.401774 -23.991354 -13.501500 -7.125000 0.000000 0.000000 -0.757100 0.793600 0.746600 8.017351 9.379380 5.691299 37.697884 9.940445 60.772512 -134.339144 40.683253 -96.840435 0.228615 -0.532356 10.593509 -25.899843 6.421339 -3.406400 7.125000 0.000000 0.000000 0.404400 -22.252000 0.221200 
7.108344 16.033144 4.335873 -170.009700 12.733748 -179.454966 3.349633 3.572650 0.288345 5.736923 12.011617 -16.669072 6.301064 14.745818 46.210170 4.531033 -23.431427 -3.479168 2.646900 -10.100300 -29.302100 -6.894695 -4.237775 -0.185351 17.126869 0.152083 -21.580131 -6.466425 -12.927000 42.002597 -0.443385 8.473409 4.538361 -4.411800 -12.689100 38.215400 -0.763638 -3.779334 10.304423 2.727992 -4.527910 -3.796121 12.387103 -1.186541 -3.547449 -6.677183 -15.316836 4.841813 5.043301 -22.378494 9.615184 1.541200 -10.337900 -5.729700 0.102097 -9.330614 4.152490 -57.438132 -20.906064 62.350921 126.356190 -42.825122 -87.064181 1.415404 1.703716 -15.497935 29.904786 -23.987151 -13.169000 -7.125000 0.000000 0.000000 -1.030800 1.064100 1.011600 8.017468 9.426783 5.686393 37.180966 9.639419 60.392235 -134.673894 40.501886 -97.189441 0.209693 -0.499465 10.173285 -25.884655 6.594600 -3.470200 7.125000 0.000000 0.000000 0.442000 -22.094400 0.243300 
7.133785 16.014958 4.344192 -169.871169 12.549888 -179.404570 3.374030 3.559064 0.287322 6.024335 12.044175 -16.985375 6.372933 14.840274 46.485114 4.540832 -23.639189 -3.553842 2.732600 -10.249000 -29.786800 -6.857228 -4.236017 -0.188620 17.058902 0.018434 -21.645794 -6.472184 -12.964856 42.097203 -0.449111 9.332669 5.226967 -4.369200 -12.636100 38.021100 -0.600884 -3.698115 10.291641 2.665791 -4.439871 -3.791246 11.822888 -1.188225 -3.527756 -6.304711 -15.425173 4.537670 5.158468 -22.411926 9.804297 1.497100 -10.411400 -5.548100 0.015930 -9.348722 4.120179 -56.407767 -21.397586 62.150052 126.359588 -42.808075 -87.148570 1.440918 1.603249 -15.393402 29.426466 -24.009098 -12.863600 -7.125000 0.000000 0.000000 -1.299300 1.295800 1.269900 8.015797 9.474035 5.691873 36.653423 9.255773 60.010693 -135.016757 40.321303 -97.542793 0.188533 -0.466190 9.644814 -25.774638 6.924773 -3.594100 7.125000 0.000000 0.000000 0.557200 -21.770100 0.310800 
7.161644 15.997740 4.352318 -169.782212 12.369266 -179.370196 3.400488 3.546907 0.285187 6.240147 12.016499 -17.241409 6.433927 14.915196 46.707769 4.554124 -23.739323 -3.682299 2.837200 -10.426700 -30.369800 -6.820948 -4.229398 -0.188459 16.948522 -0.000604 -21.662140 -6.480082 -13.001480 42.191629 -0.448309 10.133117 5.793866 -4.360800 -12.625700 37.983000 -0.490627 -3.609702 10.302131 2.600243 -4.347706 -3.788538 11.263324 -1.187588 -3.526849 -5.892703 -15.551410 4.250808 5.259576 -22.469914 9.975729 1.441200 -10.490900 -5.392600 -0.068551 -9.370497 4.079521 -55.336009 -21.850948 61.982920 126.396798 -42.775155 -87.264154 1.465904 1.498979 -15.337210 28.952935 -24.057573 -12.574500 -7.125000 0.000000 0.000000 -1.569100 1.499600 1.528100 8.025929 9.530412 5.707248 36.037025 8.766646 59.530055 -135.240544 40.215349 -97.777703 0.160655 -0.436536 9.045864 -25.787752 7.669539 -3.937400 7.125000 0.000000 0.000000 0.605900 -20.973100 0.348900 
7.192018 15.981779 4.360830 -169.672536 12.214742 -179.299610 3.428804 3.533142 0.282064 6.458007 11.927387 -17.471721 6.477551 14.975395 46.875064 4.560481 -23.774434 -3.747830 2.914100 -10.554700 -30.792400 -6.792639 -4.225004 -0.180642 16.877319 0.096358 -21.679547 -6.485594 -13.029705 42.261484 -0.444845 10.833019 6.310760 -4.377500 -12.646500 38.059400 -0.333709 -3.514785 10.285669 2.535396 -4.241159 -3.783891 10.693382 -1.178263 -3.510288 -5.482987 -15.673826 3.967268 5.377957 -22.536947 10.096223 1.398900 -10.571300 -5.259600 -0.157437 -9.392608 4.034718 -54.261883 -22.268175 61.780244 126.447263 -42.744937 -87.394981 1.494975 1.389964 -15.227041 28.456860 -24.173399 -12.304100 -7.125000 0.000000 0.000000 -1.863900 1.636900 1.810800 8.050221 9.582431 5.731876 35.182074 8.184513 58.902736 -135.300367 40.226997 -97.847334 0.119325 -0.408197 8.371778 -25.981589 8.989055 -4.589900 7.125000 0.000000 0.000000 0.567400 -19.522200 0.345200 
7.225972 15.967462 4.369633 -169.610759 12.063504 -179.232989 3.457559 3.519577 0.281175 6.611881 11.741077 -17.638250 6.501962 15.012720 46.981467 4.556875 -23.713386 -3.723449 2.948100 -10.610600 -30.977600 -6.763679 -4.219862 -0.167940 16.768583 0.234676 -21.696284 -6.485133 -13.049427 42.298435 -0.437044 11.471975 6.747718 -4.363100 -12.628500 37.993100 -0.210787 -3.421535 10.286431 2.470589 -4.141576 -3.785238 10.156123 -1.166954 -3.529273 -5.145517 -15.793327 3.707859 5.488158 -22.613162 10.224038 1.366800 -10.651400 -5.114700 -0.259318 -9.429364 3.982069 -53.168717 -22.591605 61.571916 126.557544 -42.698623 -87.587202 1.517054 1.278715 -15.107063 27.946597 -24.199463 -11.993100 -7.125000 0.000000 0.000000 -2.150200 1.871900 2.080300 8.085174 9.637286 5.766023 33.990952 7.520809 58.180058 -135.038950 40.442752 -97.602472 0.056271 -0.381578 7.732874 -26.530601 10.993847 -5.661700 7.125000 0.000000 0.000000 0.352100 -17.268700 0.231700 
7.262440 15.959143 4.377759 -169.572051 11.936340 -179.137618 3.489378 3.505019 0.280122 6.703284 11.473817 -17.774115 6.511677 15.031013 47.033847 4.550002 -23.481516 -3.692979 2.991200 -10.680700 -31.210500 -6.735963 -4.215817 -0.149127 16.653247 0.439163 -21.710234 -6.474473 -13.053821 42.278592 -0.428346 11.963703 7.087062 -4.333800 -12.591900 37.859300 -0.065633 -3.320785 10.269930 2.400830 -4.034771 -3.789449 9.579019 -1.150594 -3.561523 -4.833572 -15.903123 3.466279 5.634295 -22.692298 10.319063 1.360700 -10.732900 -4.972400 -0.375616 -9.476179 3.923496 -52.044203 -22.854819 61.349396 126.660371 -42.665608 -87.772030 1.541788 1.163927 -14.999367 27.419907 -24.277188 -11.696900 -7.125000 0.000000 0.000000 -2.455500 2.056000 2.368000 8.125637 9.687640 5.814367 32.479370 6.765712 57.345687 -134.410425 40.880183 -97.002203 -0.039478 -0.353422 7.274591 -27.462688 13.761210 -7.249500 7.125000 0.000000 0.000000 -0.001300 -14.102600 -0.000900 
7.301810 15.956628 4.385497 -169.569146 11.807719 -179.051632 3.520715 3.490237 0.282089 6.758669 11.145529 -17.865261 6.500791 15.029920 47.032865 4.525070 -23.171885 -3.494983 2.994300 -10.685700 -31.227200 -6.710752 -4.209369 -0.133773 16.523593 0.655536 -21.687941 -6.450584 -13.038419 42.188227 -0.420391 12.298369 7.326593 -4.261200 -12.500100 37.524900 0.062399 -3.221737 10.276019 2.333665 -3.928165 -3.795167 9.043739 -1.132532 -3.597921 -4.592706 -16.011918 3.204499 5.768434 -22.783037 10.392270 1.360100 -10.815900 -4.823100 -0.498997 -9.527368 3.854974 -50.887892 -23.099359 61.126043 126.688708 -42.662265 -87.872712 1.572563 1.051702 -14.831443 26.917387 -24.384110 -11.428000 -7.125000 0.000000 0.000000 -2.755600 2.195000 2.651100 8.173701 9.732395 5.876543 30.723545 5.950014 56.406799 -133.450866 41.502282 -96.086629 -0.171527 -0.313946 7.187909 -28.748329 17.271248 -9.407000 7.125000 0.000000 0.000000 -0.406700 -10.026900 -0.329700 
